<?xml version="1.0" encoding="UTF-8"?>
<svg width="605px" height="127px" viewBox="0 0 605 127" version="1.1" xmlns="http://www.w3.org/2000/svg" xmlns:xlink="http://www.w3.org/1999/xlink">
    <title>ValidMind - DE257E@5x</title>
    <g id="Page-2" stroke="none" stroke-width="1" fill="none" fill-rule="evenodd">
        <g id="Desktop-Copy-62" transform="translate(-179.000000, -477.000000)" fill="#DE257E" fill-rule="nonzero">
            <path d="M287.745513,477.956914 L232.628374,604 L220.528374,604 L203.080531,570.999914 L221.494531,570.999914 L226.415967,579.752515 L270.945513,477.956914 L287.745513,477.956914 Z M292.6,526 L328.566973,604 L311.966973,604 L303.1,585.1 L271.2,585.1 L263.424053,604 L246.924053,604 L280.4,526 L292.6,526 Z M286.8,549 L277.2,570.7 L297,570.7 L286.8,549 Z M213.059531,555.999914 L219.244531,566.999914 L200.966531,566.999914 L195.150531,555.999914 L213.059531,555.999914 Z M204.624531,540.999914 L210.810531,551.999914 L193.036531,551.999914 L187.220531,540.999914 L204.624531,540.999914 Z M196.190531,526 L202.375531,536.999914 L185.105531,536.999914 L179.290531,526 L196.190531,526 Z M351.4,589.3 L390.5,589.3 L390.5,604 L336,604 L336,526 L351.4,526 L351.4,589.3 Z M395,526 L410.4,526 L410.7,604 L395.3,604 L395,526 Z M423,526 L449.9,526 C458.5,526 465.966667,527.55 472.3,530.65 C478.633333,533.75 483.466667,538.233333 486.8,544.1 C490.133333,550.033333 491.8,557 491.8,565 C491.8,577.533333 488.183333,587.166667 480.95,593.9 C473.716667,600.633333 463.366667,604 449.9,604 L423,604 L423,526 Z M449,589.3 C458.6,589.3 465.55,587.383333 469.85,583.55 C474.15,579.716667 476.3,573.533333 476.3,565 C476.3,556.733333 474.066667,550.616667 469.6,546.65 C465.133333,542.683333 458.266667,540.7 449,540.7 L438.4,540.7 L438.4,589.3 L449,589.3 Z M511.745714,604 L503.611429,604 L503.611429,526 L511.745714,526 L539.937143,568.231429 L568.128571,526 L576.151429,526 L576.151429,604 L568.017143,604 L568.351429,538.48 L542.5,578.148571 L537.485714,578.148571 L511.3,538.814286 L511.745714,604 Z M606.905714,604 L598.66,604 L598.325714,526 L606.571429,526 L606.905714,604 Z M636.434286,604 L628.411429,604 L629.748571,526 L636.88,526 L684.794286,589.737143 L686.465714,526 L694.488571,526 L692.482857,604 L685.462857,604 L637.548571,540.04 L636.434286,604 Z M716,526 L741.611842,526 C755.182018,526 765.639254,529.38 772.983553,536.14 C780.327851,542.9 784,552.52 784,565 C784,577.777143 780.365132,587.471429 773.095395,594.082857 C765.825658,600.694286 755.33114,604 741.611842,604 L716,604 L716,526 Z M741.222222,597 C753,597 761.740741,594.439929 767.444444,589.319788 C773.148148,584.199647 776,576.259717 776,565.5 C776,544.5 764.407407,534 741.222222,534 L725,534 L725,597 L741.222222,597 Z" id="ValidMind---DE257E"></path>
        </g>
    </g>
</svg>